<svg width="272" height="37" viewBox="0 0 272 37" fill="none" xmlns="http://www.w3.org/2000/svg">
<path d="M73.0987 32H69.7209L77.3107 10.9091H80.9872L88.5771 32H85.1992L79.2365 14.7401H79.0717L73.0987 32ZM73.6651 23.7408H84.6225V26.4183H73.6651V23.7408ZM97.0423 32.3089C95.7653 32.3089 94.6256 31.9828 93.6232 31.3306C92.6277 30.6715 91.8451 29.7344 91.2752 28.5192C90.7122 27.2971 90.4308 25.8313 90.4308 24.1218C90.4308 22.4123 90.7157 20.9499 91.2855 19.7347C91.8622 18.5195 92.6518 17.5893 93.6541 16.9439C94.6565 16.2985 95.7927 15.9759 97.0629 15.9759C98.0446 15.9759 98.8342 16.1406 99.4315 16.4702C100.036 16.7928 100.502 17.1705 100.832 17.603C101.168 18.0355 101.429 18.4165 101.615 18.7461H101.8V10.9091H104.879V32H101.872V29.5387H101.615C101.429 29.8751 101.162 30.2596 100.811 30.6921C100.468 31.1246 99.9944 31.5022 99.3903 31.8249C98.7861 32.1476 98.0034 32.3089 97.0423 32.3089ZM97.7219 29.6829C98.6076 29.6829 99.3559 29.4495 99.967 28.9826C100.585 28.5089 101.052 27.8532 101.368 27.0156C101.69 26.178 101.852 25.2031 101.852 24.0909C101.852 22.9924 101.694 22.0312 101.378 21.2074C101.062 20.3835 100.599 19.7416 99.9876 19.2816C99.3765 18.8216 98.6213 18.5916 97.7219 18.5916C96.7951 18.5916 96.0227 18.8319 95.4048 19.3125C94.7869 19.7931 94.3201 20.4487 94.0043 21.2795C93.6953 22.1102 93.5408 23.0473 93.5408 24.0909C93.5408 25.1482 93.6987 26.0991 94.0146 26.9435C94.3304 27.788 94.7972 28.4574 95.4151 28.9517C96.0399 29.4392 96.8088 29.6829 97.7219 29.6829ZM122.806 16.1818L117.07 32H113.774L108.028 16.1818H111.334L115.34 28.3544H115.505L119.5 16.1818H122.806ZM131.979 32.3192C130.421 32.3192 129.079 31.9863 127.953 31.3203C126.834 30.6475 125.968 29.7035 125.357 28.4883C124.753 27.2662 124.451 25.8348 124.451 24.1939C124.451 22.5736 124.753 21.1456 125.357 19.9098C125.968 18.674 126.82 17.7094 127.911 17.016C129.01 16.3226 130.294 15.9759 131.763 15.9759C132.655 15.9759 133.521 16.1235 134.358 16.4187C135.196 16.7139 135.948 17.1773 136.613 17.8089C137.279 18.4406 137.805 19.261 138.189 20.2702C138.574 21.2726 138.766 22.4912 138.766 23.9261V25.0178H126.192V22.7109H135.748C135.748 21.9008 135.584 21.1834 135.254 20.5586C134.925 19.927 134.461 19.4292 133.864 19.0653C133.273 18.7015 132.58 18.5195 131.784 18.5195C130.919 18.5195 130.163 18.7324 129.518 19.158C128.879 19.5768 128.385 20.1261 128.035 20.8058C127.692 21.4786 127.52 22.2098 127.52 22.9993V24.8015C127.52 25.8588 127.705 26.7582 128.076 27.4996C128.454 28.2411 128.979 28.8075 129.652 29.1989C130.325 29.5833 131.111 29.7756 132.01 29.7756C132.594 29.7756 133.126 29.6932 133.606 29.5284C134.087 29.3568 134.502 29.1027 134.852 28.7663C135.203 28.4299 135.47 28.0146 135.656 27.5202L138.57 28.0455C138.337 28.9036 137.918 29.6554 137.314 30.3008C136.716 30.9393 135.965 31.437 135.058 31.794C134.159 32.1442 133.133 32.3192 131.979 32.3192ZM145.261 22.608V32H142.182V16.1818H145.138V18.7564H145.334C145.697 17.9188 146.267 17.246 147.043 16.7379C147.826 16.2299 148.811 15.9759 149.999 15.9759C151.077 15.9759 152.021 16.2024 152.831 16.6555C153.641 17.1018 154.269 17.7678 154.715 18.6534C155.162 19.5391 155.385 20.6341 155.385 21.9386V32H152.305V22.3093C152.305 21.1628 152.007 20.2668 151.41 19.6214C150.812 18.9692 149.992 18.6431 148.948 18.6431C148.234 18.6431 147.599 18.7976 147.043 19.1065C146.494 19.4155 146.058 19.8686 145.735 20.4659C145.419 21.0563 145.261 21.7704 145.261 22.608ZM166.898 16.1818V18.6534H158.258V16.1818H166.898ZM160.575 12.392H163.654V27.3555C163.654 27.9528 163.743 28.4025 163.922 28.7045C164.1 28.9998 164.33 29.2023 164.612 29.3121C164.9 29.4151 165.213 29.4666 165.549 29.4666C165.796 29.4666 166.013 29.4495 166.198 29.4151C166.383 29.3808 166.527 29.3533 166.63 29.3327L167.187 31.8764C167.008 31.9451 166.754 32.0137 166.424 32.0824C166.095 32.1579 165.683 32.1991 165.189 32.206C164.379 32.2197 163.623 32.0755 162.923 31.7734C162.223 31.4714 161.656 31.0045 161.224 30.3729C160.791 29.7412 160.575 28.9483 160.575 27.994V12.392ZM180.325 25.44V16.1818H183.414V32H180.386V29.2607H180.222C179.858 30.1051 179.274 30.8088 178.471 31.3718C177.674 31.9279 176.682 32.206 175.495 32.206C174.479 32.206 173.579 31.9828 172.797 31.5366C172.021 31.0835 171.41 30.4141 170.963 29.5284C170.524 28.6428 170.304 27.5477 170.304 26.2433V16.1818H173.384V25.8725C173.384 26.9504 173.682 27.8086 174.279 28.4471C174.877 29.0856 175.653 29.4048 176.607 29.4048C177.184 29.4048 177.757 29.2607 178.327 28.9723C178.903 28.6839 179.381 28.248 179.758 27.6644C180.143 27.0808 180.331 26.3394 180.325 25.44ZM187.551 32V16.1818H190.528V18.6946H190.692C190.981 17.8433 191.489 17.1739 192.217 16.6864C192.951 16.1921 193.782 15.945 194.709 15.945C194.901 15.945 195.128 15.9518 195.388 15.9656C195.656 15.9793 195.866 15.9964 196.017 16.017V18.9624C195.893 18.928 195.673 18.8903 195.358 18.8491C195.042 18.801 194.726 18.777 194.41 18.777C193.682 18.777 193.034 18.9315 192.464 19.2404C191.901 19.5425 191.454 19.9647 191.125 20.5071C190.795 21.0426 190.631 21.6536 190.631 22.3402V32H187.551ZM204.932 32.3192C203.374 32.3192 202.032 31.9863 200.906 31.3203C199.787 30.6475 198.922 29.7035 198.311 28.4883C197.706 27.2662 197.404 25.8348 197.404 24.1939C197.404 22.5736 197.706 21.1456 198.311 19.9098C198.922 18.674 199.773 17.7094 200.865 17.016C201.963 16.3226 203.247 15.9759 204.716 15.9759C205.609 15.9759 206.474 16.1235 207.311 16.4187C208.149 16.7139 208.901 17.1773 209.567 17.8089C210.233 18.4406 210.758 19.261 211.142 20.2702C211.527 21.2726 211.719 22.4912 211.719 23.9261V25.0178H199.145V22.7109H208.702C208.702 21.9008 208.537 21.1834 208.207 20.5586C207.878 19.927 207.414 19.4292 206.817 19.0653C206.227 18.7015 205.533 18.5195 204.737 18.5195C203.872 18.5195 203.116 18.7324 202.471 19.158C201.833 19.5768 201.338 20.1261 200.988 20.8058C200.645 21.4786 200.473 22.2098 200.473 22.9993V24.8015C200.473 25.8588 200.659 26.7582 201.029 27.4996C201.407 28.2411 201.932 28.8075 202.605 29.1989C203.278 29.5833 204.064 29.7756 204.963 29.7756C205.547 29.7756 206.079 29.6932 206.559 29.5284C207.04 29.3568 207.455 29.1027 207.806 28.7663C208.156 28.4299 208.423 28.0146 208.609 27.5202L211.523 28.0455C211.29 28.9036 210.871 29.6554 210.267 30.3008C209.67 30.9393 208.918 31.437 208.012 31.794C207.112 32.1442 206.086 32.3192 204.932 32.3192ZM229.656 17.5721C229.457 16.9473 229.189 16.3878 228.853 15.8935C228.523 15.3923 228.128 14.9666 227.668 14.6165C227.208 14.2595 226.683 13.9883 226.093 13.8029C225.509 13.6175 224.867 13.5249 224.167 13.5249C222.979 13.5249 221.908 13.8304 220.954 14.4414C220 15.0524 219.244 15.9484 218.688 17.1293C218.139 18.3033 217.864 19.7416 217.864 21.4442C217.864 23.1538 218.142 24.599 218.699 25.7798C219.255 26.9607 220.017 27.8567 220.985 28.4677C221.953 29.0787 223.055 29.3842 224.291 29.3842C225.437 29.3842 226.436 29.1508 227.287 28.6839C228.146 28.2171 228.808 27.558 229.275 26.7067C229.749 25.8485 229.986 24.8393 229.986 23.679L230.809 23.8335H224.775V21.2074H233.065V23.6069C233.065 25.3782 232.687 26.9161 231.932 28.2205C231.184 29.5181 230.147 30.5205 228.822 31.2276C227.504 31.9348 225.993 32.2884 224.291 32.2884C222.382 32.2884 220.707 31.849 219.265 30.9702C217.83 30.0914 216.711 28.8453 215.908 27.2319C215.104 25.6116 214.703 23.6893 214.703 21.4648C214.703 19.7828 214.936 18.2724 215.403 16.9336C215.87 15.5948 216.526 14.4586 217.37 13.5249C218.221 12.5843 219.22 11.8668 220.367 11.3725C221.52 10.8713 222.78 10.6207 224.146 10.6207C225.286 10.6207 226.347 10.7889 227.329 11.1254C228.317 11.4618 229.196 11.9389 229.965 12.5568C230.741 13.1747 231.383 13.9093 231.891 14.7607C232.399 15.6051 232.742 16.5423 232.921 17.5721H229.656ZM236.857 32V16.1818H239.833V18.6946H239.998C240.286 17.8433 240.794 17.1739 241.522 16.6864C242.257 16.1921 243.088 15.945 244.014 15.945C244.207 15.945 244.433 15.9518 244.694 15.9656C244.962 15.9793 245.171 15.9964 245.322 16.017V18.9624C245.199 18.928 244.979 18.8903 244.663 18.8491C244.347 18.801 244.032 18.777 243.716 18.777C242.988 18.777 242.339 18.9315 241.769 19.2404C241.206 19.5425 240.76 19.9647 240.431 20.5071C240.101 21.0426 239.936 21.6536 239.936 22.3402V32H236.857ZM247.987 32V16.1818H251.066V32H247.987ZM249.542 13.7411C249.006 13.7411 248.546 13.5626 248.162 13.2056C247.784 12.8417 247.596 12.4092 247.596 11.908C247.596 11.4 247.784 10.9674 248.162 10.6104C248.546 10.2466 249.006 10.0646 249.542 10.0646C250.078 10.0646 250.534 10.2466 250.912 10.6104C251.296 10.9674 251.488 11.4 251.488 11.908C251.488 12.4092 251.296 12.8417 250.912 13.2056C250.534 13.5626 250.078 13.7411 249.542 13.7411ZM261.13 32.3089C259.853 32.3089 258.713 31.9828 257.711 31.3306C256.716 30.6715 255.933 29.7344 255.363 28.5192C254.8 27.2971 254.519 25.8313 254.519 24.1218C254.519 22.4123 254.804 20.9499 255.373 19.7347C255.95 18.5195 256.74 17.5893 257.742 16.9439C258.744 16.2985 259.881 15.9759 261.151 15.9759C262.133 15.9759 262.922 16.1406 263.519 16.4702C264.124 16.7928 264.59 17.1705 264.92 17.603C265.256 18.0355 265.517 18.4165 265.703 18.7461H265.888V10.9091H268.967V32H265.96V29.5387H265.703C265.517 29.8751 265.249 30.2596 264.899 30.6921C264.556 31.1246 264.082 31.5022 263.478 31.8249C262.874 32.1476 262.091 32.3089 261.13 32.3089ZM261.81 29.6829C262.695 29.6829 263.444 29.4495 264.055 28.9826C264.673 28.5089 265.14 27.8532 265.455 27.0156C265.778 26.178 265.939 25.2031 265.939 24.0909C265.939 22.9924 265.782 22.0312 265.466 21.2074C265.15 20.3835 264.686 19.7416 264.075 19.2816C263.464 18.8216 262.709 18.5916 261.81 18.5916C260.883 18.5916 260.111 18.8319 259.493 19.3125C258.875 19.7931 258.408 20.4487 258.092 21.2795C257.783 22.1102 257.629 23.0473 257.629 24.0909C257.629 25.1482 257.787 26.0991 258.102 26.9435C258.418 27.788 258.885 28.4574 259.503 28.9517C260.128 29.4392 260.897 29.6829 261.81 29.6829Z" fill="#344054"/>
<path d="M14.3302 14.5493L0.981725 35.462C0.556833 36.1276 1.03494 37 1.82465 37H51.9208C52.6547 37 53.1386 36.2358 52.8248 35.5724L36.8228 1.7396C36.4766 1.00761 35.4494 0.969118 35.0493 1.67316L24.1484 20.8588C23.8222 21.4329 23.0388 21.5388 22.5719 21.0719L15.8802 14.3802C15.4283 13.9283 14.6741 14.0105 14.3302 14.5493Z" fill="#667085"/>
<path d="M22.3302 14.5493L8.98172 35.462C8.55683 36.1276 9.03494 37 9.82465 37H59.9208C60.6547 37 61.1386 36.2358 60.8248 35.5724L44.8228 1.7396C44.4766 1.00761 43.4494 0.969118 43.0493 1.67316L32.1484 20.8588C31.8222 21.4329 31.0388 21.5388 30.5719 21.0719L23.8802 14.3802C23.4283 13.9283 22.6741 14.0105 22.3302 14.5493Z" fill="#344054"/>
</svg>
